<svg width="98" height="94" viewBox="0 0 98 94" fill="none" xmlns="http://www.w3.org/2000/svg">
<g clip-path="url(#clip0_164_1099)">
<path d="M86.0247 40.6719H73.7324V93.0058H86.0247V40.6719Z" fill="#166EC0"/>
<path d="M94.464 10.9472H97.9967V0H92.779C80.0328 0 73.7324 8.95814 73.7324 23.3826V30.8584H86.0247V20.8046C86.0247 14.5826 88.3207 10.9472 94.464 10.9472Z" fill="#166EC0"/>
<path d="M61.9437 20.3478C61.9437 23.9744 58.9696 26.9184 55.3 26.9184C51.6304 26.9184 48.6562 23.9773 48.6562 20.3478C48.6562 16.7183 51.6304 13.7771 55.3 13.7771C58.9696 13.7771 61.9437 16.7183 61.9437 20.3478Z" fill="#219B4E"/>
<path d="M98.0002 30.8584H49.1602V93.0118H61.4436V40.6691H98.0002V30.8584Z" fill="#219B4E"/>
<path d="M37.3626 30.1582C37.3626 33.7849 34.3885 36.729 30.7189 36.729C27.0492 36.729 24.0752 33.7879 24.0752 30.1582C24.0752 26.5287 27.0435 23.5876 30.7189 23.5876C34.3943 23.5876 37.3626 26.5287 37.3626 30.1582Z" fill="#7ABD45"/>
<path d="M49.1606 40.6719H24.5762V93.0146H36.8683V50.4883H49.1606V40.6689V40.6719Z" fill="#7ABD45"/>
<path d="M12.2921 71.9082V50.4883H0V69.6203C0 84.0447 6.29452 93.0029 19.0465 93.0029H20.7373V81.8447C14.5883 81.6777 12.2893 78.1303 12.2893 71.9082H12.2921Z" fill="#A2C53D"/>
</g>
<defs>
<clipPath id="clip0_164_1099">
<rect width="98" height="94" fill="white"/>
</clipPath>
</defs>
</svg>
